PathFileType	4	(X/Y/Z)	Patient4_TMGait_0pt8_01_left_40.trc.trc
DataRate	CameraRate	NumFrames	NumMarkers	Units	OrigDataRate	OrigDataStartFrame	OrigNumFrames
89.743589743590	89.743589743590	5	33	mm	89.743589743590	53	       141
Frame#	Time	Sacral			L.Shoulder			Chest			R.Shoulder			Neck			R.ASIS			L.ASIS			R.Thigh.Superior			R.Thigh.Lateral			R.Thigh.Inferior			R.Patella			L.Thigh.Superior			L.Thigh.Lateral			L.Thigh.Inferior			L.Patella			L.Shank.Superior			L.Shank.Lateral			L.Shank.Inferior			R.Shank.Superior			R.Shank.Lateral			R.Shank.Inferior			R.Heel			R.Midfoot.Superior			R.Midfoot.Lateral			R.Toe			L.Heel			L.Midfoot.Lateral			L.Midfoot.Superior			L.Toe			L.Elbow			L.Wrist			R.Elbow			R.Wrist			
		X1	Y1	Z1	X2	Y2	Z2	X3	Y3	Z3	X4	Y4	Z4	X5	Y5	Z5	X6	Y6	Z6	X7	Y7	Z7	X8	Y8	Z8	X9	Y9	Z9	X10	Y10	Z10	X11	Y11	Z11	X12	Y12	Z12	X13	Y13	Z13	X14	Y14	Z14	X15	Y15	Z15	X16	Y16	Z16	X17	Y17	Z17	X18	Y18	Z18	X19	Y19	Z19	X20	Y20	Z20	X21	Y21	Z21	X22	Y22	Z22	X23	Y23	Z23	X24	Y24	Z24	X25	Y25	Z25	X26	Y26	Z26	X27	Y27	Z27	X28	Y28	Z28	X29	Y29	Z29	X30	Y30	Z30	X31	Y31	Z31	X32	Y32	Z32	X33	Y33	Z33	

53	44.899428571429	868.859107660413	1009.666179226114	444.587954674415	1045.623471801957	1438.323815063473	268.556811721719	1146.609529432246	1372.434995507733	432.364312218543	1057.108066793594	1444.255564317472	605.070897590540	1026.861651792962	1499.669303932296	424.853437805772	1093.237481515479	946.548348737499	564.336521628810	1086.486829762033	968.725748363868	292.671562671230	1186.053052319023	787.201007970269	526.628923389115	1158.731035785197	662.496873533838	598.564778088423	1249.064780401387	631.372976819899	516.251382313317	1274.991997273808	515.745937676987	535.456530305853	1133.035063101291	754.697413322471	321.492825053731	1041.537306097712	640.960650530976	259.415897024843	1121.658385585918	561.232087613286	325.086763658195	1119.485816395921	492.654149136062	334.946864515070	1094.834401877893	420.680876989410	325.510498855795	1006.090773954506	304.116591811448	279.647998865054	1062.956520538358	195.136281599493	349.558401506360	1196.730843389560	439.984989150804	541.285577433690	1073.166999140720	403.670675798168	599.822583683702	1056.029565067663	295.991476246209	549.481378013949	855.543947365579	248.799484099540	518.304726923153	1017.217897637738	172.730058080908	561.173090594033	907.046202956583	181.839030391660	590.901522205919	1067.341663288764	51.957860791526	582.880191497371	940.058311628655	37.898665462709	400.529572324254	1006.500010781868	35.600475295128	313.216147346365	1090.502029428505	97.994413809425	333.926605636514	1215.813554360168	50.485012033044	292.945208116867	1055.659559014859	1091.618356854691	133.094882957419	1174.978852485612	857.956937364689	141.967611632718	1054.377628133452	1091.678872318779	714.912270033939	1271.097206067531	960.396364110399	669.683688300548	
54	44.910571428571	867.599456039722	1010.100110406146	443.300670502289	1046.198976435911	1439.323894997326	268.997764431535	1145.913258329083	1372.799166258103	433.291970640723	1055.184366224917	1444.055471895791	605.567177288131	1026.143815820898	1500.131851075137	425.343065496440	1091.563156230737	947.632650986545	564.214760093275	1085.844860393926	969.132899996450	292.408941987858	1186.636999764849	791.478226537415	525.853010356394	1162.208758594317	666.346638825377	598.431480248821	1252.730416974351	636.835377752400	515.774101853414	1281.473842065777	522.253770107054	535.311483945918	1129.939567255103	753.793434970903	321.659595732170	1036.927901328392	641.078634802856	258.928035248279	1115.442685751437	560.281745482776	325.068527622227	1112.296420300340	491.926288859602	334.960013945007	1087.522026211537	420.291647024980	325.411814031941	998.310787421427	304.124639775006	279.448187489231	1054.519319528807	194.928843371927	349.571230876639	1206.070663103252	444.152302212622	541.683439842611	1084.418094252620	402.521720488424	600.526332015555	1071.915314521981	294.050933552535	550.452373428753	873.451185696613	237.038393981151	519.725802881941	1038.915902411424	169.792500503368	562.921500139863	928.388775024710	173.492975377326	592.845525081178	1095.281139438603	52.199685826552	585.632396969232	931.023558548434	37.885210536884	400.524524168562	997.512536675997	35.585278180678	313.212713525598	1081.526347298757	97.931771070390	333.965916769662	1206.852349522327	50.431454331504	292.931596441373	1064.742807718932	1094.581357180287	130.047908527585	1196.457444428588	867.555665017663	140.142674485922	1045.883766595185	1090.883025394943	714.175214423426	1251.641177731597	939.167208688615	676.754517517883	
55	44.921714285714	866.448856662242	1010.421140117859	442.147445245823	1046.785321899822	1440.214685023336	269.513110216864	1145.303227399285	1373.046642410182	434.232622046866	1053.454105230530	1443.742913028271	606.110695510900	1025.494741101488	1500.468857246961	425.900253856555	1090.059428084956	948.566930018597	564.149404936668	1085.417267691205	969.478008320410	292.125334610827	1187.013128812205	795.196995842936	525.392566379506	1164.930275363335	669.680514096380	598.452208510238	1255.621408399290	641.551264966934	515.560969776958	1286.892513735334	528.269448753350	535.436250924140	1126.836572409885	752.778970066889	321.802302829701	1032.372969035115	641.129085310957	258.469123873652	1109.272215229437	559.288029284812	325.044946751574	1105.187867529694	491.183980602161	334.926903243419	1080.269278597241	419.866190478410	325.307825456109	990.574260775944	304.109865585212	279.245600890575	1046.097364140833	194.695863565914	349.581405297245	1214.691367788284	447.840222259210	542.373680276730	1095.377627111669	400.542561763619	601.560649261856	1088.033875281109	291.433043460667	551.820738048868	892.395038396080	223.901015989405	521.417612686901	1061.317150635113	166.246362415984	565.146800500990	950.691843996452	164.295387239266	595.250663096356	1124.139442143931	52.432323378451	589.297485268981	921.998434344527	37.865743210432	400.522052390484	988.521838735241	35.565330358206	313.210138982165	1072.559025498628	97.861495235923	334.005676628336	1197.895419992758	50.362802859380	292.916635465094	1073.360716446010	1097.669146814769	127.224763025255	1217.421333563739	878.195262623488	138.778138777371	1038.067591975451	1090.100500578112	713.584660865613	1230.591353932260	919.185619187737	683.748456464114	
56	44.932857142857	865.409833303046	1010.626748838877	441.131227561642	1047.394922332013	1440.978748549240	270.097618585435	1144.795649600370	1373.163723533567	435.183405708015	1051.938379954799	1443.307165960538	606.705311462072	1024.933118130413	1500.671539993142	426.521691650426	1088.734012637315	949.325978266334	564.138470198352	1085.265359512717	969.791920121481	291.812752393332	1187.190889565583	798.286451260511	525.211652396738	1166.879885390314	672.417099589107	598.611050835373	1257.718310303712	645.420883563656	515.594188511247	1291.222804490787	533.686058105310	535.796445794033	1123.751788709952	751.661750558329	321.944852802298	1027.903435295071	641.113785007392	258.051688035919	1103.184867374567	558.256428523451	325.019909084654	1098.194976210627	490.426355663226	334.859959887347	1073.099482189221	419.401333870135	325.208723018679	982.901559772157	304.074276709146	279.045776726662	1037.704569305941	194.434485046094	349.594072492838	1222.549788772289	451.011901739977	543.321412718303	1106.077101074973	397.790008719630	602.927820682304	1104.341197091341	288.272912766104	553.551849820546	912.417015459870	209.699386500791	523.427490913530	1084.329552749180	162.303022335964	567.757093043986	973.947807808288	154.499786590571	598.077072641280	1153.699698914621	52.894109934795	593.636909766022	912.988316661586	37.842716809743	400.517620293012	979.530015680598	35.541849234974	313.207789850255	1063.605503099041	97.784497384667	334.047257778234	1188.942813133685	50.275547375545	292.902018956367	1081.484722951976	1100.815933260311	124.634234193213	1237.746886578478	889.836301611582	137.865518641159	1030.877945841804	1089.316183533224	713.157202402303	1208.121149854992	900.736389383759	690.592175619257	
57	44.944000000000	864.491364885765	1010.715750788609	440.253929128505	1048.037010617622	1441.603756022354	270.749901788779	1144.405797711818	1373.140157845393	436.142858185441	1050.657676025034	1442.740296033215	607.356397485871	1024.475944404900	1500.735065973851	427.207688885294	1087.590628608344	949.890814187586	564.182400791737	1085.430695024093	970.100535218378	291.477594156175	1187.170696944080	800.686903267411	525.269936660389	1168.044496576489	674.492265606315	598.898027929554	1259.006452218592	648.368041060440	515.861198735697	1294.457178170989	538.415957911767	536.358606068916	1120.717385652526	750.452755701368	322.105983284809	1023.539577942544	641.035528404374	257.687697346909	1097.210474892898	557.192089300430	324.996006554526	1091.341933593684	489.650496351449	334.772725111225	1066.028296778997	418.895792530386	325.123770366950	975.306009047185	304.021217357105	278.856254635269	1029.351715152295	194.143914584271	349.613577206024	1229.614136504767	453.648952452139	544.484598330577	1116.553137891404	394.341186193811	604.625722813632	1120.778565727351	284.720240952100	555.592075318808	933.515692637988	194.766499975444	525.790990388576	1107.849769098091	158.191694110198	570.641117694716	998.127803775450	144.363934942609	601.259101888086	1183.747925140324	53.814588195195	598.355082010163	903.996231499019	37.820132850576	400.507849270921	970.539190798940	35.516944388714	313.205423933336	1054.669443019531	97.701943167116	334.092088160906	1179.994117024665	50.167019977197	292.889100084746	1089.107258285098	1103.960504774115	122.286890567491	1257.317557265391	902.428818764185	137.393450843265	1024.231749724163	1088.533228893942	712.901497142250	1184.466662594448	884.077670143250	697.211014151227	
